{"accessors":[{"bufferView":0,"componentType":5125,"count":948,"type":"SCALAR"},{"bufferView":1,"componentType":5126,"count":620,"max":[1,0.31489372253417969,0.42638301849365234],"min":[-1,-0.31489372253417969,-0.42638301849365234],"type":"VEC3"},{"bufferView":2,"componentType":5126,"count":620,"type":"VEC3"},{"bufferView":3,"componentType":5126,"count":620,"type":"VEC2"}],"asset":{"generator":"Substance Painter 2017.3.3","version":"2.0"},"bufferViews":[{"buffer":0,"byteLength":3792,"byteOffset":0,"target":34963},{"buffer":0,"byteLength":7440,"byteOffset":3792,"target":34962},{"buffer":0,"byteLength":7440,"byteOffset":11232,"target":34962},{"buffer":0,"byteLength":4960,"byteOffset":18672,"target":34962}],"buffers":[{"byteLength":23632,"uri":"IKEA_table.bin"}],"images":[{"uri":"Table_mat_baseColor.png"},{"uri":"Table_mat_occlusionRoughnessMetallic.png"},{"uri":"Table_mat_normal.png"}],"materials":[{"alphaMode":"OPAQUE","name":"Table_mat","normalTexture":{"index":2},"occlusionTexture":{"index":1},"pbrMetallicRoughness":{"baseColorTexture":{"index":0},"metallicRoughnessTexture":{"index":1}}}],"meshes":[{"name":"legs_cage","primitives":[{"attributes":{"NORMAL":2,"POSITION":1,"TEXCOORD_0":3},"indices":0,"material":0,"mode":4}]}],"nodes":[{"children":[1],"name":"root","scale":[117.4998779296875,117.4998779296875,117.4998779296875],"translation":[0,36.999820709228516,0]},{"children":[2],"name":"legs_cage"},{"mesh":0,"name":"legs_cage"}],"samplers":[{"magFilter":9729,"minFilter":9985,"wrapS":10497,"wrapT":10497}],"scene":0,"scenes":[{"name":"Scene","nodes":[0]}],"textures":[{"sampler":0,"source":0},{"sampler":0,"source":1},{"sampler":0,"source":2}]}
