{"accessors":[{"bufferView":0,"componentType":5125,"count":1149,"type":"SCALAR"},{"bufferView":1,"componentType":5126,"count":411,"max":[0.52073013782501221,1.0000002384185791,0.55410486459732056],"min":[-0.52073013782501221,-0.99999994039535522,-0.55410492420196533],"type":"VEC3"},{"bufferView":2,"componentType":5126,"count":411,"type":"VEC3"},{"bufferView":3,"componentType":5126,"count":411,"type":"VEC2"}],"asset":{"generator":"Substance Painter 2017.3.3","version":"2.0"},"bufferViews":[{"buffer":0,"byteLength":4596,"byteOffset":0,"target":34963},{"buffer":0,"byteLength":4932,"byteOffset":4596,"target":34962},{"buffer":0,"byteLength":4932,"byteOffset":9528,"target":34962},{"buffer":0,"byteLength":3288,"byteOffset":14460,"target":34962}],"buffers":[{"byteLength":17748,"uri":"IKEA_chear.bin"}],"images":[{"uri":"chair_mat_baseColor.png"},{"uri":"chair_mat_occlusionRoughnessMetallic.png"},{"uri":"chair_mat_normal.png"}],"materials":[{"alphaMode":"OPAQUE","name":"chair_mat","normalTexture":{"index":2},"occlusionTexture":{"index":1},"pbrMetallicRoughness":{"baseColorTexture":{"index":0},"metallicRoughnessTexture":{"index":1}}}],"meshes":[{"name":"seat_LP","primitives":[{"attributes":{"NORMAL":2,"POSITION":1,"TEXCOORD_0":3},"indices":0,"material":0,"mode":4}]}],"nodes":[{"children":[1],"name":"root","scale":[0.48712638020515442,0.48712638020515442,0.48712638020515442],"translation":[0,0.48712641000747681,0.05991913378238678]},{"children":[2],"name":"seat_LP"},{"mesh":0,"name":"seat_LP"}],"samplers":[{"magFilter":9729,"minFilter":9985,"wrapS":10497,"wrapT":10497}],"scene":0,"scenes":[{"name":"Scene","nodes":[0]}],"textures":[{"sampler":0,"source":0},{"sampler":0,"source":1},{"sampler":0,"source":2}]}
