{"accessors":[{"bufferView":0,"componentType":5125,"count":36,"type":"SCALAR"},{"bufferView":1,"componentType":5126,"count":24,"max":[1,0.60833483934402466,0.62500011920928955],"min":[-1,0,-0.62500011920928955],"type":"VEC3"},{"bufferView":2,"componentType":5126,"count":24,"type":"VEC3"},{"bufferView":3,"componentType":5126,"count":24,"type":"VEC2"},{"bufferView":4,"componentType":5125,"count":216,"type":"SCALAR"},{"bufferView":5,"componentType":5126,"count":112,"max":[0.91666662693023682,0.57500147819519043,0.54166668653488159],"min":[-0.91666662693023682,-0.60833483934402466,-0.54166686534881592],"type":"VEC3"},{"bufferView":6,"componentType":5126,"count":112,"type":"VEC3"},{"bufferView":7,"componentType":5126,"count":112,"type":"VEC2"},{"bufferView":8,"componentType":5125,"count":72,"type":"SCALAR"},{"bufferView":9,"componentType":5126,"count":48,"max":[0.89166676998138428,0.57500147819519043,0.51666653156280518],"min":[-0.89166676998138428,0,-0.51666688919067383],"type":"VEC3"},{"bufferView":10,"componentType":5126,"count":48,"type":"VEC3"},{"bufferView":11,"componentType":5126,"count":48,"type":"VEC2"}],"asset":{"generator":"Substance Painter 2017.3.3","version":"2.0"},"bufferViews":[{"buffer":0,"byteLength":144,"byteOffset":0,"target":34963},{"buffer":0,"byteLength":288,"byteOffset":144,"target":34962},{"buffer":0,"byteLength":288,"byteOffset":432,"target":34962},{"buffer":0,"byteLength":192,"byteOffset":720,"target":34962},{"buffer":0,"byteLength":864,"byteOffset":912,"target":34963},{"buffer":0,"byteLength":1344,"byteOffset":1776,"target":34962},{"buffer":0,"byteLength":1344,"byteOffset":3120,"target":34962},{"buffer":0,"byteLength":896,"byteOffset":4464,"target":34962},{"buffer":0,"byteLength":288,"byteOffset":5360,"target":34963},{"buffer":0,"byteLength":576,"byteOffset":5648,"target":34962},{"buffer":0,"byteLength":576,"byteOffset":6224,"target":34962},{"buffer":0,"byteLength":384,"byteOffset":6800,"target":34962}],"buffers":[{"byteLength":7184,"uri":"Waifair_table.bin"}],"images":[{"uri":"Table_baseColor.png"},{"uri":"Table_occlusionRoughnessMetallic.png"},{"uri":"Table_normal.png"}],"materials":[{"alphaMode":"OPAQUE","name":"Table","normalTexture":{"index":2},"occlusionTexture":{"index":1},"pbrMetallicRoughness":{"baseColorTexture":{"index":0},"metallicRoughnessTexture":{"index":1}}}],"meshes":[{"name":"tabletop_LP","primitives":[{"attributes":{"NORMAL":2,"POSITION":1,"TEXCOORD_0":3},"indices":0,"material":0,"mode":4}]},{"name":"legs_LP","primitives":[{"attributes":{"NORMAL":6,"POSITION":5,"TEXCOORD_0":7},"indices":4,"material":0,"mode":4}]},{"name":"topbeams_LP","primitives":[{"attributes":{"NORMAL":10,"POSITION":9,"TEXCOORD_0":11},"indices":8,"material":0,"mode":4}]}],"nodes":[{"children":[1,3,5],"name":"root","scale":[59.999996185302734,59.999996185302734,59.999996185302734],"translation":[0,36.499919891357422,0]},{"children":[2],"name":"tabletop_LP"},{"mesh":0,"name":"tabletop_LP"},{"children":[4],"name":"legs_LP"},{"mesh":1,"name":"legs_LP"},{"children":[6],"name":"topbeams_LP"},{"mesh":2,"name":"topbeams_LP"}],"samplers":[{"magFilter":9729,"minFilter":9985,"wrapS":10497,"wrapT":10497}],"scene":0,"scenes":[{"name":"Scene","nodes":[0]}],"textures":[{"sampler":0,"source":0},{"sampler":0,"source":1},{"sampler":0,"source":2}]}
