{"accessors":[{"bufferView":0,"componentType":5125,"count":300,"type":"SCALAR"},{"bufferView":1,"componentType":5126,"count":120,"max":[0.49392911791801453,1,0.60143494606018066],"min":[-0.49392911791801453,0,0],"type":"VEC3"},{"bufferView":2,"componentType":5126,"count":120,"type":"VEC3"},{"bufferView":3,"componentType":5126,"count":120,"type":"VEC2"},{"bufferView":4,"componentType":5125,"count":552,"type":"SCALAR"},{"bufferView":5,"componentType":5126,"count":224,"max":[0.47170174121856689,0.8501662015914917,0.54505354166030884],"min":[-0.4722481369972229,-1,-0.57845056056976318],"type":"VEC3"},{"bufferView":6,"componentType":5126,"count":224,"type":"VEC3"},{"bufferView":7,"componentType":5126,"count":224,"type":"VEC2"},{"bufferView":8,"componentType":5125,"count":78,"type":"SCALAR"},{"bufferView":9,"componentType":5126,"count":52,"max":[0.38063615560531616,0,0.37215286493301392],"min":[-0.38063615560531616,-0.10685893148183823,-0.53995078802108765],"type":"VEC3"},{"bufferView":10,"componentType":5126,"count":52,"type":"VEC3"},{"bufferView":11,"componentType":5126,"count":52,"type":"VEC2"},{"bufferView":12,"componentType":5125,"count":132,"type":"SCALAR"},{"bufferView":13,"componentType":5126,"count":52,"max":[0.41307768225669861,0.027112379670143127,0.34813293814659119],"min":[-0.41307768225669861,-0.017544837668538094,-0.60143494606018066],"type":"VEC3"},{"bufferView":14,"componentType":5126,"count":52,"type":"VEC3"},{"bufferView":15,"componentType":5126,"count":52,"type":"VEC2"},{"bufferView":16,"componentType":5125,"count":144,"type":"SCALAR"},{"bufferView":17,"componentType":5126,"count":96,"max":[0.27121701836585999,0.85237842798233032,0.57443982362747192],"min":[-0.27121701836585999,0,0],"type":"VEC3"},{"bufferView":18,"componentType":5126,"count":96,"type":"VEC3"},{"bufferView":19,"componentType":5126,"count":96,"type":"VEC2"}],"asset":{"generator":"Substance Painter 2017.3.3","version":"2.0"},"bufferViews":[{"buffer":0,"byteLength":1200,"byteOffset":0,"target":34963},{"buffer":0,"byteLength":1440,"byteOffset":1200,"target":34962},{"buffer":0,"byteLength":1440,"byteOffset":2640,"target":34962},{"buffer":0,"byteLength":960,"byteOffset":4080,"target":34962},{"buffer":0,"byteLength":2208,"byteOffset":5040,"target":34963},{"buffer":0,"byteLength":2688,"byteOffset":7248,"target":34962},{"buffer":0,"byteLength":2688,"byteOffset":9936,"target":34962},{"buffer":0,"byteLength":1792,"byteOffset":12624,"target":34962},{"buffer":0,"byteLength":312,"byteOffset":14416,"target":34963},{"buffer":0,"byteLength":624,"byteOffset":14728,"target":34962},{"buffer":0,"byteLength":624,"byteOffset":15352,"target":34962},{"buffer":0,"byteLength":416,"byteOffset":15976,"target":34962},{"buffer":0,"byteLength":528,"byteOffset":16392,"target":34963},{"buffer":0,"byteLength":624,"byteOffset":16920,"target":34962},{"buffer":0,"byteLength":624,"byteOffset":17544,"target":34962},{"buffer":0,"byteLength":416,"byteOffset":18168,"target":34962},{"buffer":0,"byteLength":576,"byteOffset":18584,"target":34963},{"buffer":0,"byteLength":1152,"byteOffset":19160,"target":34962},{"buffer":0,"byteLength":1152,"byteOffset":20312,"target":34962},{"buffer":0,"byteLength":768,"byteOffset":21464,"target":34962}],"buffers":[{"byteLength":22232,"uri":"Waifair_chair.bin"}],"images":[{"uri":"Chair_baseColor.png"},{"uri":"Chair_occlusionRoughnessMetallic.png"},{"uri":"Chair_normal.png"}],"materials":[{"alphaMode":"OPAQUE","name":"Chair","normalTexture":{"index":2},"occlusionTexture":{"index":1},"pbrMetallicRoughness":{"baseColorTexture":{"index":0},"metallicRoughnessTexture":{"index":1}}}],"meshes":[{"name":"legs_chair_LP.003","primitives":[{"attributes":{"NORMAL":2,"POSITION":1,"TEXCOORD_0":3},"indices":0,"material":0,"mode":4}]},{"name":"legs_chair_LP.002","primitives":[{"attributes":{"NORMAL":6,"POSITION":5,"TEXCOORD_0":7},"indices":4,"material":0,"mode":4}]},{"name":"legs_chair_LP.001","primitives":[{"attributes":{"NORMAL":10,"POSITION":9,"TEXCOORD_0":11},"indices":8,"material":0,"mode":4}]},{"name":"seat_chair_LP","primitives":[{"attributes":{"NORMAL":14,"POSITION":13,"TEXCOORD_0":15},"indices":12,"material":0,"mode":4}]},{"name":"legs_chair_LP","primitives":[{"attributes":{"NORMAL":18,"POSITION":17,"TEXCOORD_0":19},"indices":16,"material":0,"mode":4}]}],"nodes":[{"children":[1,3,5,7,9],"name":"root","scale":[44.785762786865234,44.785762786865234,44.785762786865234],"translation":[0,44.785755157470703,6.4059638977050781]},{"children":[2],"name":"legs_chair_LP.003"},{"mesh":0,"name":"legs_chair_LP.003"},{"children":[4],"name":"legs_chair_LP.002"},{"mesh":1,"name":"legs_chair_LP.002"},{"children":[6],"name":"legs_chair_LP.001"},{"mesh":2,"name":"legs_chair_LP.001"},{"children":[8],"name":"seat_chair_LP"},{"mesh":3,"name":"seat_chair_LP"},{"children":[10],"name":"legs_chair_LP"},{"mesh":4,"name":"legs_chair_LP"}],"samplers":[{"magFilter":9729,"minFilter":9985,"wrapS":10497,"wrapT":10497}],"scene":0,"scenes":[{"name":"Scene","nodes":[0]}],"textures":[{"sampler":0,"source":0},{"sampler":0,"source":1},{"sampler":0,"source":2}]}
